<svg xmlns="http://www.w3.org/2000/svg" id="prefix__Layer_1" data-name="Layer 1" viewBox="0 0 714.102 714.102"><defs><style>.prefix__cls-1,.prefix__cls-2{fill:#fff;stroke-miterlimit:10}.prefix__cls-1,.prefix__cls-2,.prefix__cls-5{stroke:#000;stroke-width:37px}.prefix__cls-2,.prefix__cls-5{fill-rule:evenodd}.prefix__cls-5{fill:none;stroke-linecap:round;stroke-linejoin:round}</style></defs><path d="M676.361 357.051H37.741c0-176.35 142.96-319.31 319.31-319.31s319.31 142.96 319.31 319.31z" fill="#fff" fill-rule="evenodd" stroke="#000" stroke-width="37" stroke-miterlimit="10"/><path d="M676.361 357.051c0 176.35-142.96 319.31-319.31 319.31s-319.31-142.96-319.31-319.31h638.62z" class="prefix__cls-2"/><rect width="153.909" height="153.909" x="280.127" y="280.097" class="prefix__cls-1" rx="4.352" ry="4.352"/><path d="M357.041 434.006v155.545m.04-309.454V124.551" fill="none" stroke="#000" stroke-width="37" stroke-miterlimit="10"/><circle cx="572.858" cy="357.051" r="32.087" class="prefix__cls-1"/><circle cx="141.244" cy="357.051" r="32.087" class="prefix__cls-1"/><circle cx="357.061" cy="567.06" r="32.087" class="prefix__cls-1"/><circle cx="357.061" cy="147.042" r="32.087" class="prefix__cls-1"/><path d="M280.127 429.654v61.093h-80.374" class="prefix__cls-5"/><path d="M160.474 490.747c.72-42.178 63.46-42.172 64.174.001-.72 42.177-63.46 42.17-64.174-.001z" class="prefix__cls-2"/><path d="M280.127 278.611v-61.093h-80.374" class="prefix__cls-5"/><circle cx="192.561" cy="217.518" r="32.087" class="prefix__cls-1"/><path d="M434.036 429.654v61.093h80.373" class="prefix__cls-5"/><path d="M553.688 490.747c-.72-42.178-63.46-42.172-64.174.001.72 42.177 63.46 42.17 64.174-.001z" class="prefix__cls-2"/><path d="M434.036 278.611v-61.093h80.373" class="prefix__cls-5"/><circle cx="521.601" cy="217.518" r="32.087" class="prefix__cls-1"/></svg>